<?xml version="1.0" encoding="iso-8859-1"?>
<!-- Generator: Adobe Illustrator 19.0.0, SVG Export Plug-In . SVG Version: 6.00 Build 0)  -->
<svg version="1.1" id="Layer_1" xmlns="http://www.w3.org/2000/svg" xmlns:xlink="http://www.w3.org/1999/xlink" x="0px" y="0px"
	 viewBox="0 0 238.804 238.804" style="enable-background:new 0 0 238.804 238.804;" xml:space="preserve">
<g>
	<g>
		<g>
			<path d="M148.223,86.463H90.581c-2.274,0-4.117,1.842-4.117,4.117v57.642c0,2.276,1.844,4.117,4.117,4.117h57.642
				c2.274,0,4.117-1.842,4.117-4.117V90.581C152.34,88.305,150.497,86.463,148.223,86.463z M144.106,144.106H94.698V94.698h49.408
				V144.106z"/>
			<path d="M226.452,152.34c-5.36,0-9.888,3.452-11.593,8.235H168.81V78.229h46.049c1.705,4.782,6.232,8.235,11.593,8.235
				c6.811,0,12.352-5.541,12.352-12.352s-5.541-12.352-12.352-12.352c-5.36,0-9.888,3.452-11.593,8.235H168.81v-46.05
				c4.782-1.705,8.235-6.233,8.235-11.593C177.044,5.541,171.503,0,164.692,0c-6.811,0-12.352,5.541-12.352,12.352
				c0,5.36,3.452,9.888,8.235,11.593v46.049H78.229V23.945c4.782-1.705,8.235-6.233,8.235-11.593C86.463,5.541,80.923,0,74.111,0
				C67.3,0,61.76,5.541,61.76,12.352c0,5.36,3.452,9.888,8.235,11.593v46.049h-46.05c-1.705-4.782-6.233-8.235-11.593-8.235
				C5.541,61.76,0,67.3,0,74.111c0,6.811,5.541,12.352,12.352,12.352c5.36,0,9.888-3.452,11.593-8.235h46.049v82.346H23.945
				c-1.705-4.782-6.233-8.235-11.593-8.235C5.541,152.34,0,157.881,0,164.692c0,6.811,5.541,12.352,12.352,12.352
				c5.36,0,9.888-3.452,11.593-8.235h46.049v46.049c-4.782,1.705-8.235,6.233-8.235,11.593c0,6.811,5.541,12.352,12.352,12.352
				c6.811,0,12.352-5.541,12.352-12.352c0-5.36-3.452-9.888-8.235-11.593V168.81h82.346v46.049
				c-4.782,1.705-8.235,6.233-8.235,11.593c0,6.811,5.541,12.352,12.352,12.352c6.811,0,12.352-5.541,12.352-12.352
				c0-5.36-3.452-9.888-8.235-11.593V168.81h46.049c1.705,4.782,6.232,8.235,11.593,8.235c6.811,0,12.352-5.541,12.352-12.352
				C238.802,157.882,233.263,152.34,226.452,152.34z M226.452,69.994c2.27,0,4.117,1.845,4.117,4.117
				c0,2.272-1.847,4.117-4.117,4.117c-2.27,0-4.117-1.845-4.117-4.117C222.335,71.839,224.182,69.994,226.452,69.994z
				 M12.352,78.229c-2.27,0-4.117-1.845-4.117-4.117s1.847-4.117,4.117-4.117c2.27,0,4.117,1.845,4.117,4.117
				S14.622,78.229,12.352,78.229z M12.352,168.81c-2.27,0-4.117-1.845-4.117-4.117c0-2.272,1.847-4.117,4.117-4.117
				c2.27,0,4.117,1.845,4.117,4.117C16.469,166.965,14.622,168.81,12.352,168.81z M74.111,230.569c-2.27,0-4.117-1.845-4.117-4.117
				c0-2.272,1.847-4.117,4.117-4.117c2.27,0,4.117,1.845,4.117,4.117C78.229,228.724,76.381,230.569,74.111,230.569z M74.111,16.469
				c-2.27,0-4.117-1.845-4.117-4.117c0-2.272,1.848-4.117,4.117-4.117c2.27,0,4.117,1.845,4.117,4.117
				C78.228,14.624,76.381,16.469,74.111,16.469z M78.229,160.575V78.229h82.346v82.346H78.229z M168.809,226.452
				c0.001,2.272-1.847,4.117-4.117,4.117s-4.117-1.845-4.117-4.117c0-2.272,1.847-4.117,4.117-4.117S168.809,224.18,168.809,226.452
				z M164.692,16.469c-2.27,0-4.117-1.845-4.117-4.117c0-2.272,1.847-4.117,4.117-4.117s4.117,1.845,4.117,4.117
				C168.809,14.624,166.962,16.469,164.692,16.469z M226.452,168.81c-2.27,0-4.117-1.845-4.117-4.117
				c0-2.272,1.847-4.117,4.117-4.117c2.27,0,4.117,1.845,4.117,4.117C230.569,166.965,228.722,168.81,226.452,168.81z"/>
		</g>
	</g>
</g>
<g>
</g>
<g>
</g>
<g>
</g>
<g>
</g>
<g>
</g>
<g>
</g>
<g>
</g>
<g>
</g>
<g>
</g>
<g>
</g>
<g>
</g>
<g>
</g>
<g>
</g>
<g>
</g>
<g>
</g>
</svg>
