<svg xmlns="http://www.w3.org/2000/svg" viewBox="0 0 512 512"><path d="M426.737 168.939a8 8 0 0 0-3.364 10.802C439.484 210.427 448 245.096 448 280c0 57.695-22.468 111.938-63.265 152.735C343.938 473.533 289.696 496 232 496s-111.938-22.468-152.735-63.265C38.468 391.939 16 337.696 16 280s22.468-111.938 63.265-152.735C120.062 86.468 174.304 64 232 64c34.916 0 69.595 8.521 100.288 24.642a7.997 7.997 0 0 0 10.802-3.362 8 8 0 0 0-3.363-10.802C306.749 57.156 269.498 48 232 48c-61.97 0-120.23 24.132-164.049 67.951S0 218.031 0 280s24.132 120.23 67.951 164.049S170.03 512 232 512s120.23-24.132 164.049-67.951S464 341.97 464 280c0-37.485-9.15-74.727-26.461-107.697a8 8 0 0 0-10.802-3.364z"/><path d="M334.708 136.837a8 8 0 0 0-2.332-11.071C302.513 106.293 267.804 96 232 96 130.542 96 48 178.542 48 280s82.542 184 184 184 184-82.542 184-184c0-35.79-10.286-70.488-29.745-100.344a7.999 7.999 0 0 0-11.07-2.334 7.999 7.999 0 0 0-2.334 11.07C390.612 215.644 400 247.321 400 280c0 92.636-75.364 168-168 168S64 372.636 64 280s75.364-168 168-168c32.692 0 64.38 9.395 91.637 27.168a8.001 8.001 0 0 0 11.071-2.331z"/><path d="M306.644 175.699a7.999 7.999 0 0 0-2.532-11.026C282.525 151.149 257.589 144 232 144c-74.991 0-136 61.01-136 136s61.009 136 136 136 136-61.01 136-136c0-25.589-7.147-50.523-20.67-72.108a7.998 7.998 0 0 0-11.026-2.532 8 8 0 0 0-2.532 11.026C345.696 235.422 352 257.419 352 280c0 66.168-53.832 120-120 120s-120-53.832-120-120 53.832-120 120-120c22.582 0 44.58 6.304 63.617 18.23a7.999 7.999 0 0 0 11.027-2.531z"/><path d="M274.128 211.508a7.998 7.998 0 0 0-3.697-10.692C258.4 194.966 245.47 192 232 192c-48.523 0-88 39.477-88 88s39.477 88 88 88 88-39.477 88-88c0-13.457-2.961-26.377-8.8-38.401-1.931-3.975-6.717-5.634-10.691-3.701a8 8 0 0 0-3.701 10.691C301.58 258.416 304 268.985 304 280c0 39.701-32.299 72-72 72s-72-32.299-72-72 32.299-72 72-72c11.026 0 21.603 2.424 31.435 7.204a8.001 8.001 0 0 0 10.693-3.696z"/><path d="M226.975 256.526a8 8 0 0 0-3.329-15.65C205.309 244.776 192 261.231 192 280c0 22.056 17.944 40 40 40 18.919 0 35.4-13.436 39.188-31.947a8 8 0 1 0-15.674-3.207C253.241 295.945 243.353 304 232 304c-13.233 0-24-10.767-24-24 0-11.263 7.98-21.135 18.975-23.474z"/><path d="M511.391 52.939A8 8 0 0 0 504 48h-40V8a8.002 8.002 0 0 0-13.656-5.658l-100 100a8.002 8.002 0 0 0-2.343 5.657v44.686L226.343 274.343a7.999 7.999 0 0 0 0 11.314c1.562 1.562 3.609 2.343 5.657 2.343s4.095-.781 5.657-2.343L359.314 164H404a8 8 0 0 0 5.657-2.343l100-100a8 8 0 0 0 1.734-8.718zM400.687 148h-25.373l62.343-62.343a7.999 7.999 0 0 0 0-11.314 8.001 8.001 0 0 0-11.313 0L364 136.686v-25.373l84-84V56a8 8 0 0 0 8 8h28.687l-84 84z"/></svg>