<svg xmlns="http://www.w3.org/2000/svg" viewBox="0 0 238.804 238.804"><path d="M148.223 86.463H90.581a4.116 4.116 0 0 0-4.117 4.117v57.642a4.116 4.116 0 0 0 4.117 4.117h57.642a4.116 4.116 0 0 0 4.117-4.117V90.581a4.116 4.116 0 0 0-4.117-4.118zm-4.117 57.643H94.698V94.698h49.408v49.408z"/><path d="M226.452 152.34c-5.36 0-9.888 3.452-11.593 8.235H168.81V78.229h46.049c1.705 4.782 6.232 8.235 11.593 8.235 6.811 0 12.352-5.541 12.352-12.352s-5.541-12.352-12.352-12.352c-5.36 0-9.888 3.452-11.593 8.235H168.81v-46.05c4.782-1.705 8.235-6.233 8.235-11.593C177.044 5.541 171.503 0 164.692 0S152.34 5.541 152.34 12.352c0 5.36 3.452 9.888 8.235 11.593v46.049H78.229V23.945c4.782-1.705 8.235-6.233 8.235-11.593C86.463 5.541 80.923 0 74.111 0 67.3 0 61.76 5.541 61.76 12.352c0 5.36 3.452 9.888 8.235 11.593v46.049h-46.05c-1.705-4.782-6.233-8.235-11.593-8.235C5.541 61.76 0 67.3 0 74.111s5.541 12.352 12.352 12.352c5.36 0 9.888-3.452 11.593-8.235h46.049v82.346H23.945c-1.705-4.782-6.233-8.235-11.593-8.235C5.541 152.34 0 157.881 0 164.692s5.541 12.352 12.352 12.352c5.36 0 9.888-3.452 11.593-8.235h46.049v46.049c-4.782 1.705-8.235 6.233-8.235 11.593 0 6.811 5.541 12.352 12.352 12.352s12.352-5.541 12.352-12.352c0-5.36-3.452-9.888-8.235-11.593V168.81h82.346v46.049c-4.782 1.705-8.235 6.233-8.235 11.593 0 6.811 5.541 12.352 12.352 12.352s12.352-5.541 12.352-12.352c0-5.36-3.452-9.888-8.235-11.593V168.81h46.049c1.705 4.782 6.232 8.235 11.593 8.235 6.811 0 12.352-5.541 12.352-12.352s-5.539-12.353-12.35-12.353zm0-82.346a4.12 4.12 0 0 1 4.117 4.117 4.12 4.12 0 0 1-4.117 4.117 4.12 4.12 0 0 1-4.117-4.117 4.12 4.12 0 0 1 4.117-4.117zm-214.1 8.235c-2.27 0-4.117-1.845-4.117-4.117s1.847-4.117 4.117-4.117 4.117 1.845 4.117 4.117-1.847 4.117-4.117 4.117zm0 90.581a4.12 4.12 0 0 1-4.117-4.117 4.12 4.12 0 0 1 4.117-4.117 4.12 4.12 0 0 1 4.117 4.117 4.12 4.12 0 0 1-4.117 4.117zm61.759 61.759a4.12 4.12 0 0 1-4.117-4.117 4.12 4.12 0 0 1 4.117-4.117 4.12 4.12 0 0 1 4.117 4.117 4.12 4.12 0 0 1-4.117 4.117zm0-214.1a4.12 4.12 0 0 1-4.117-4.117 4.121 4.121 0 0 1 4.117-4.117 4.12 4.12 0 0 1 4.117 4.117 4.12 4.12 0 0 1-4.117 4.117zm4.118 144.106V78.229h82.346v82.346H78.229zm90.58 65.877c.001 2.272-1.847 4.117-4.117 4.117s-4.117-1.845-4.117-4.117c0-2.272 1.847-4.117 4.117-4.117s4.117 1.845 4.117 4.117zm-4.117-209.983a4.12 4.12 0 0 1-4.117-4.117c0-2.272 1.847-4.117 4.117-4.117s4.117 1.845 4.117 4.117a4.12 4.12 0 0 1-4.117 4.117zm61.76 152.341a4.12 4.12 0 0 1-4.117-4.117 4.12 4.12 0 0 1 4.117-4.117 4.12 4.12 0 0 1 4.117 4.117 4.12 4.12 0 0 1-4.117 4.117z"/></svg>