<svg xmlns="http://www.w3.org/2000/svg" viewBox="0 0 24 24"><path d="M16.365 9.843a2.216 2.216 0 01-2.214-2.213c0-1.22.993-2.213 2.214-2.213s2.214.993 2.214 2.213c0 1.22-.993 2.213-2.214 2.213zm0-3.627c-.767 0-1.413.647-1.413 1.413s.646 1.414 1.413 1.414c.779 0 1.413-.634 1.413-1.414 0-.766-.646-1.413-1.413-1.413zm-4.304 4.674c-.567 0-1.048.482-1.048 1.048 0 .567.482 1.048 1.048 1.048s1.048-.482 1.048-1.048c-.028-.594-.481-1.048-1.048-1.048zm-6.885 3.867a.401.401 0 01-.329-.628l2.519-3.639a.4.4 0 01.659.455l-2.519 3.639a.402.402 0 01-.33.173zm4.468 4.467a.401.401 0 01-.228-.73l3.639-2.519a.401.401 0 01.455.659l-3.639 2.519a.408.408 0 01-.227.071z"/><path d="M11.173 22.876a.753.753 0 01-.232-.039.646.646 0 01-.432-.481l-1.141-3.119c-.776.01-2.617-.06-3.581-1.023-.981-.98-1.042-2.845-1.023-3.581l-3.16-1.153a.615.615 0 01-.441-.419.672.672 0 01.076-.604l.983-1.684a.353.353 0 01.063-.081.743.743 0 01.51-.23l4.696-.136c.594-.796 3.25-4.321 5.069-6.14C16.436.309 23.325.2 23.393.2a.4.4 0 01.379.252c.1.249-.156 7.191-3.955 10.991-1.819 1.819-5.346 4.477-6.141 5.069l-.137 4.708c.001.231-.144.411-.229.498a.502.502 0 01-.081.063l-1.705.996a.658.658 0 01-.351.099zm-1.53-4.453a.4.4 0 01.376.264l1.216 3.331 1.51-.883.137-4.842a.395.395 0 01.163-.31c.042-.031 4.234-3.136 6.206-5.108 3.1-3.1 3.641-8.362 3.732-9.86-1.497.087-6.739.615-9.858 3.734-1.972 1.972-5.076 6.165-5.107 6.207a.399.399 0 01-.31.162l-4.843.14-.882 1.51 3.332 1.213a.4.4 0 01.261.408c-.001.023-.174 2.307.777 3.258.714.715 2.211.792 2.821.792.261 0 .429-.014.437-.014l.032-.002z"/><path d="M4.918 19.482a.4.4 0 01-.283-.683l2.492-2.492a.4.4 0 11.565.566L5.2 19.365a.394.394 0 01-.282.117zm-3.685 3.685a.4.4 0 01-.283-.683l2.217-2.217a.4.4 0 11.565.566L1.516 23.05a.398.398 0 01-.283.117zm-.635-2.722a.4.4 0 01-.283-.683l2.217-2.218a.4.4 0 11.565.566L.88 20.328a.394.394 0 01-.282.117zm3.358 3.358a.4.4 0 01-.283-.683l2.217-2.218a.4.4 0 11.565.566l-2.217 2.218a.398.398 0 01-.282.117z"/></svg>